<svg xmlns="http://www.w3.org/2000/svg" viewBox="0 0 512 512">
  <!-- Background -->
  <rect width="512" height="512" fill="#1e1005"/>

  <!-- Crescent moon (top-right) -->
  <circle cx="368" cy="108" r="66" fill="#f5d060"/>
  <circle cx="396" cy="92" r="57" fill="#1e1005"/>

  <!-- Stars -->
  <circle cx="148" cy="98" r="6" fill="#f5d060"/>
  <circle cx="182" cy="70" r="4" fill="#f5d060"/>
  <circle cx="120" cy="62" r="4" fill="#f5d060"/>
  <circle cx="205" cy="95" r="5" fill="#f5d060"/>

  <!-- Open book — left page -->
  <path d="M76 212 C76 192 96 182 244 176 L244 364 C96 368 76 358 76 336 Z" fill="#c8922a"/>
  <!-- Open book — right page -->
  <path d="M436 212 C436 192 416 182 268 176 L268 364 C416 368 436 358 436 336 Z" fill="#d4a040"/>
  <!-- Book spine -->
  <rect x="244" y="176" width="24" height="188" rx="5" fill="#8b5c18"/>

  <!-- Page lines — left -->
  <rect x="100" y="222" width="118" height="8" rx="4" fill="#f5e6c8" opacity="0.55"/>
  <rect x="100" y="246" width="98" height="8"  rx="4" fill="#f5e6c8" opacity="0.55"/>
  <rect x="100" y="270" width="108" height="8" rx="4" fill="#f5e6c8" opacity="0.55"/>
  <rect x="100" y="294" width="85" height="8"  rx="4" fill="#f5e6c8" opacity="0.55"/>
  <rect x="100" y="318" width="100" height="8" rx="4" fill="#f5e6c8" opacity="0.55"/>

  <!-- Page lines — right -->
  <rect x="294" y="222" width="118" height="8" rx="4" fill="#f5e6c8" opacity="0.55"/>
  <rect x="294" y="246" width="98" height="8"  rx="4" fill="#f5e6c8" opacity="0.55"/>
  <rect x="294" y="270" width="108" height="8" rx="4" fill="#f5e6c8" opacity="0.55"/>
  <rect x="294" y="294" width="85" height="8"  rx="4" fill="#f5e6c8" opacity="0.55"/>
  <rect x="294" y="318" width="100" height="8" rx="4" fill="#f5e6c8" opacity="0.55"/>
</svg>
